<svg width="30" height="30" viewBox="0 0 30 30" fill="none" xmlns="http://www.w3.org/2000/svg">
<path d="M19.6375 15.8875C19.7513 15.7686 19.8405 15.6284 19.9 15.475C20.025 15.1707 20.025 14.8293 19.9 14.525C19.8405 14.3716 19.7513 14.2314 19.6375 14.1125L15.8875 10.3625C15.6521 10.1271 15.3329 9.99489 15 9.99489C14.6671 9.99489 14.3479 10.1271 14.1125 10.3625C13.8771 10.5979 13.7449 10.9171 13.7449 11.25C13.7449 11.5829 13.8771 11.9021 14.1125 12.1375L15.7375 13.75H11.25C10.9185 13.75 10.6005 13.8817 10.3661 14.1161C10.1317 14.3505 10 14.6685 10 15C10 15.3315 10.1317 15.6495 10.3661 15.8839C10.6005 16.1183 10.9185 16.25 11.25 16.25H15.7375L14.1125 17.8625C13.9953 17.9787 13.9024 18.117 13.8389 18.2693C13.7754 18.4216 13.7428 18.585 13.7428 18.75C13.7428 18.915 13.7754 19.0784 13.8389 19.2307C13.9024 19.3831 13.9953 19.5213 14.1125 19.6375C14.2287 19.7547 14.367 19.8477 14.5193 19.9111C14.6716 19.9746 14.835 20.0073 15 20.0073C15.165 20.0073 15.3284 19.9746 15.4807 19.9111C15.6331 19.8477 15.7713 19.7547 15.8875 19.6375L19.6375 15.8875ZM27.5 15C27.5 12.5277 26.7669 10.111 25.3934 8.05538C24.0199 5.99976 22.0676 4.39761 19.7835 3.45151C17.4995 2.50542 14.9861 2.25787 12.5614 2.74019C10.1366 3.2225 7.90933 4.41301 6.16117 6.16117C4.41301 7.90933 3.2225 10.1366 2.74019 12.5614C2.25787 14.9861 2.50542 17.4995 3.45151 19.7835C4.39761 22.0676 5.99976 24.0199 8.05538 25.3934C10.111 26.7669 12.5277 27.5 15 27.5C18.3152 27.5 21.4946 26.183 23.8388 23.8388C26.183 21.4946 27.5 18.3152 27.5 15V15ZM5.00001 15C5.00001 13.0222 5.5865 11.0888 6.68531 9.4443C7.78412 7.79981 9.34591 6.51809 11.1732 5.76121C13.0004 5.00433 15.0111 4.8063 16.9509 5.19215C18.8907 5.57801 20.6725 6.53041 22.0711 7.92894C23.4696 9.32746 24.422 11.1093 24.8079 13.0491C25.1937 14.9889 24.9957 16.9996 24.2388 18.8268C23.4819 20.6541 22.2002 22.2159 20.5557 23.3147C18.9112 24.4135 16.9778 25 15 25C12.3478 25 9.8043 23.9464 7.92894 22.0711C6.05357 20.1957 5.00001 17.6522 5.00001 15V15Z" fill="white"/>
</svg>
