<svg width="170" height="170" viewBox="0 0 170 170" fill="none" xmlns="http://www.w3.org/2000/svg">
<path fill-rule="evenodd" clip-rule="evenodd" d="M15 0C6.71582 0 0 6.71582 0 15V155C0 163.284 6.71582 170 15 170H155C163.284 170 170 163.284 170 155V15C170 6.71582 163.284 0 155 0H15ZM90.2639 24.0088L135.732 69.4773C138.42 72.1643 138.431 76.5364 135.744 79.2224L131.628 83.3528C130.33 84.6487 128.625 85.3616 126.779 85.3616C124.933 85.3616 123.249 84.6487 121.953 83.3528L95.2178 56.5261V141.103C95.2178 144.901 91.9419 148 88.1436 148H82.3044C78.5059 148 75.5312 144.901 75.5312 141.103V56.8252L48.9463 83.3528C47.6504 84.6487 45.8606 85.3616 44.0159 85.3616C42.1699 85.3616 40.4397 84.6487 39.1428 83.3528L35.0144 79.2224C32.3286 76.5376 32.3286 72.1643 35.0144 69.4773L80.4841 24.0088C81.781 22.7119 83.51 22 85.355 22C87.2368 22 88.967 22.7119 90.2639 24.0088Z" fill="white"/>
</svg>
