<svg width="24" height="21" viewBox="0 0 24 21" fill="none" xmlns="http://www.w3.org/2000/svg">
<path d="M3.32719 5.78637e-05C2.17056 -0.00247851 1.02998 0.270694 0 0.796933C1.33828 1.84166 2.27694 3.31452 2.65875 4.96881C0.999375 6.42662 0 8.28756 0 10.3126C0 12.2813 0.940313 14.1657 2.6625 15.6722C2.38456 16.8561 1.81841 17.953 1.01437 18.8654L0.0131249 20.0119L1.48687 20.3926C2.08687 20.5482 2.70562 20.6251 3.32719 20.6251C5.41594 20.6251 7.35187 19.8732 8.835 18.496C9.77437 18.6647 10.7419 18.7501 11.7188 18.7501C18.1809 18.7501 23.4375 14.9644 23.4375 10.3126C23.4375 5.66068 18.1809 1.87506 11.7188 1.87506C10.725 1.87506 9.76687 1.97443 8.84625 2.14225C7.34266 0.757533 5.37124 -0.00766302 3.32719 5.78637e-05V5.78637e-05ZM11.7188 3.75006C17.1469 3.75006 21.5625 6.69381 21.5625 10.3126C21.5625 13.9313 17.1469 16.8751 11.7188 16.8751C10.6987 16.8751 9.69281 16.771 8.72719 16.5638L8.21063 16.4513L7.84781 16.8347C6.70031 18.0488 5.12812 18.7276 3.41344 18.7501C4.02291 17.7376 4.43042 16.6166 4.61344 15.4491L4.70062 14.9026L4.26469 14.5651C2.72437 13.3641 1.875 11.8547 1.875 10.3126C1.875 6.69381 6.29063 3.75006 11.7188 3.75006ZM7.03125 9.37506C6.65829 9.37506 6.3006 9.52322 6.03688 9.78694C5.77316 10.0507 5.625 10.4083 5.625 10.7813C5.625 11.1543 5.77316 11.512 6.03688 11.7757C6.3006 12.0394 6.65829 12.1876 7.03125 12.1876C7.40421 12.1876 7.7619 12.0394 8.02562 11.7757C8.28934 11.512 8.4375 11.1543 8.4375 10.7813C8.4375 10.4083 8.28934 10.0507 8.02562 9.78694C7.7619 9.52322 7.40421 9.37506 7.03125 9.37506ZM11.7188 9.37506C11.3458 9.37506 10.9881 9.52322 10.7244 9.78694C10.4607 10.0507 10.3125 10.4083 10.3125 10.7813C10.3125 11.1543 10.4607 11.512 10.7244 11.7757C10.9881 12.0394 11.3458 12.1876 11.7188 12.1876C12.0917 12.1876 12.4494 12.0394 12.7131 11.7757C12.9768 11.512 13.125 11.1543 13.125 10.7813C13.125 10.4083 12.9768 10.0507 12.7131 9.78694C12.4494 9.52322 12.0917 9.37506 11.7188 9.37506ZM16.4062 9.37506C16.0333 9.37506 15.6756 9.52322 15.4119 9.78694C15.1482 10.0507 15 10.4083 15 10.7813C15 11.1543 15.1482 11.512 15.4119 11.7757C15.6756 12.0394 16.0333 12.1876 16.4062 12.1876C16.7792 12.1876 17.1369 12.0394 17.4006 11.7757C17.6643 11.512 17.8125 11.1543 17.8125 10.7813C17.8125 10.4083 17.6643 10.0507 17.4006 9.78694C17.1369 9.52322 16.7792 9.37506 16.4062 9.37506Z" fill="white"/>
</svg>
