<svg width="25" height="25" viewBox="0 0 25 25" fill="none" xmlns="http://www.w3.org/2000/svg">
<path d="M12.5 0C14.1415 0 15.767 0.323322 17.2835 0.951506C18.8001 1.57969 20.1781 2.50043 21.3388 3.66117C22.4996 4.8219 23.4203 6.19989 24.0485 7.71646C24.6767 9.23303 25 10.8585 25 12.5C25 15.8152 23.683 18.9946 21.3388 21.3388C18.9946 23.683 15.8152 25 12.5 25C10.8585 25 9.23303 24.6767 7.71646 24.0485C6.19989 23.4203 4.8219 22.4996 3.66117 21.3388C1.31696 18.9946 0 15.8152 0 12.5C0 9.18479 1.31696 6.00537 3.66117 3.66117C6.00537 1.31696 9.18479 0 12.5 0V0Z" fill="#F06400"/>
<path d="M12.5 6C13.3536 6 14.1988 6.15519 14.9874 6.45672C15.7761 6.75825 16.4926 7.20021 17.0962 7.75736C17.6998 8.31451 18.1786 8.97595 18.5052 9.7039C18.8319 10.4319 19 11.2121 19 12C19 13.5913 18.3152 15.1174 17.0962 16.2426C15.8772 17.3679 14.2239 18 12.5 18C11.6464 18 10.8012 17.8448 10.0126 17.5433C9.22394 17.2417 8.50739 16.7998 7.90381 16.2426C6.68482 15.1174 6 13.5913 6 12C6 10.4087 6.68482 8.88258 7.90381 7.75736C9.12279 6.63214 10.7761 6 12.5 6V6Z" fill="white"/>
</svg>
