<svg width="40" height="40" viewBox="0 0 15 15" fill="none" xmlns="http://www.w3.org/2000/svg">
<circle cx="7.5" cy="7.5" r="7.5" fill="white"/>
<path d="M9.565 9.3865C9.474 9.1065 9.2115 8.9 8.9 8.9H8.55V7.85C8.55 7.75717 8.51312 7.66815 8.44749 7.60251C8.38185 7.53687 8.29283 7.5 8.2 7.5H6.1V6.8H6.8C6.89283 6.8 6.98185 6.76312 7.04749 6.69749C7.11312 6.63185 7.15 6.54283 7.15 6.45V5.75H7.85C8.03565 5.75 8.2137 5.67625 8.34497 5.54497C8.47625 5.4137 8.55 5.23565 8.55 5.05V4.9065C8.96877 5.07533 9.34039 5.34312 9.63305 5.68694C9.92571 6.03077 10.1307 6.44039 10.2305 6.88075C10.3302 7.32111 10.3218 7.77908 10.2059 8.21547C10.09 8.65186 9.87011 9.05367 9.565 9.3865V9.3865ZM7.15 10.2755C5.7675 10.104 4.7 8.928 4.7 7.5C4.7 7.283 4.728 7.073 4.7735 6.8735L6.45 8.55V8.9C6.45 9.08565 6.52375 9.2637 6.65503 9.39497C6.7863 9.52625 6.96435 9.6 7.15 9.6V10.2755ZM7.5 4C7.04037 4 6.58525 4.09053 6.16061 4.26642C5.73597 4.44231 5.35013 4.70012 5.02513 5.02513C4.36875 5.6815 4 6.57174 4 7.5C4 8.42826 4.36875 9.3185 5.02513 9.97487C5.35013 10.2999 5.73597 10.5577 6.16061 10.7336C6.58525 10.9095 7.04037 11 7.5 11C8.42826 11 9.3185 10.6313 9.97487 9.97487C10.6313 9.3185 11 8.42826 11 7.5C11 7.04037 10.9095 6.58525 10.7336 6.16061C10.5577 5.73597 10.2999 5.35013 9.97487 5.02513C9.64987 4.70012 9.26403 4.44231 8.83939 4.26642C8.41475 4.09053 7.95963 4 7.5 4V4Z" fill="black"/>
</svg>
