<svg width="170" height="170" viewBox="0 0 170 170" fill="none" xmlns="http://www.w3.org/2000/svg">
<path fill-rule="evenodd" clip-rule="evenodd" d="M15 0C6.71582 0 0 6.71582 0 15V155C0 163.284 6.71582 170 15 170H155C163.284 170 170 163.284 170 155V15C170 6.71582 163.284 0 155 0H15ZM109.901 26.8992L143.1 60.0808C144.3 61.2793 144.3 63.2231 143.1 64.4226L142.959 64.5632C140.925 66.5986 138.218 67.719 135.339 67.719C133.484 67.719 131.705 67.248 130.127 66.3733L100.314 101.092C102.689 103.749 103.99 107.141 103.99 110.733C103.99 114.603 102.482 118.243 99.7437 120.979L99.5354 121.187C98.9365 121.787 98.1497 122.087 97.364 122.087C96.5781 122.087 95.792 121.787 95.1924 121.187L76.3684 102.373L57.0291 121.702C56.5996 122.12 47.1514 131.285 39.6338 137.31C32.4287 143.083 31.1475 144.196 31.0964 144.24C30.5154 144.748 29.793 145 29.0723 145C28.2817 145 27.4937 144.697 26.896 144.097C25.7554 142.951 25.6963 141.122 26.762 139.908C26.821 139.841 27.9563 138.53 33.6968 131.376C39.7246 123.861 48.8933 114.418 49.281 114.019L68.6519 94.6598L48.7625 74.7812C47.5627 73.5828 47.5627 71.6392 48.7625 70.4407L48.9707 70.2324C51.7087 67.4956 55.3496 65.9883 59.2227 65.9883C62.8167 65.9883 66.21 67.2881 68.8687 69.6628L103.606 39.866C102.731 38.2886 102.26 36.51 102.26 34.6565C102.26 31.7795 103.381 29.074 105.417 27.0398L105.558 26.8992C106.756 25.7002 108.702 25.7002 109.901 26.8992Z" fill="white"/>
</svg>
