<svg width="50" height="50" viewBox="0 0 54 54" fill="none" xmlns="http://www.w3.org/2000/svg">
<path d="M27 54C41.9117 54 54 41.9117 54 27C54 12.0883 41.9117 0 27 0C12.0883 0 0 12.0883 0 27C0 41.9117 12.0883 54 27 54Z" fill="#00AA13"/>
<path d="M37.6909 39.376C39.8658 39.376 41.6289 37.6129 41.6289 35.438C41.6289 33.2631 39.8658 31.5 37.6909 31.5C35.516 31.5 33.7529 33.2631 33.7529 35.438C33.7529 37.6129 35.516 39.376 37.6909 39.376Z" fill="white"/>
<path d="M16.3159 39.376C18.4908 39.376 20.2539 37.6129 20.2539 35.438C20.2539 33.2631 18.4908 31.5 16.3159 31.5C14.141 31.5 12.3779 33.2631 12.3779 35.438C12.3779 37.6129 14.141 39.376 16.3159 39.376Z" fill="white"/>
<path d="M48.347 28.097C48.2678 27.1795 47.8981 26.3111 47.2918 25.6181C46.6854 24.925 45.8738 24.4433 44.975 24.243C42.885 23.838 40.775 23.537 38.655 23.343L34.845 17.334C34.1892 16.303 33.3042 15.4374 32.2589 14.8046C31.2137 14.1719 30.0365 13.789 28.819 13.686C25.6792 13.4382 22.5247 13.4382 19.385 13.686C18.0949 13.7789 16.8482 14.1912 15.7572 14.8858C14.6662 15.5804 13.765 16.5355 13.135 17.665L9.92796 23.457C9.24096 23.559 8.55996 23.696 7.88796 23.867C7.40946 23.9985 6.97518 24.2564 6.63067 24.6136C6.28616 24.9707 6.04413 25.414 5.92996 25.897C5.64842 27.5377 5.56115 29.2058 5.66996 30.867C5.79296 32.916 6.79596 34.138 9.54996 34.778C9.76796 34.828 9.96496 34.878 10.154 34.928C10.2854 33.3362 11.0276 31.857 12.225 30.8001C13.4225 29.7431 14.9824 29.1904 16.5782 29.2576C18.174 29.3248 19.6819 30.0067 20.7862 31.1606C21.8906 32.3144 22.5058 33.8508 22.503 35.448C22.503 35.621 22.504 35.828 22.49 35.996C23.822 36.01 25.302 35.981 27 35.981C28.655 35.981 30.154 36.005 31.528 35.988C31.4359 34.3753 31.9785 32.7905 33.0397 31.5727C34.101 30.3549 35.5966 29.6006 37.2068 29.4713C38.8169 29.342 40.4138 29.8478 41.6558 30.8806C42.8978 31.9134 43.6864 33.3912 43.853 34.998L44.413 34.884C46.284 34.558 48.15 33.237 48.312 31.574C48.359 30.788 48.407 28.69 48.347 28.097V28.097ZM15.81 19.113L16.125 18.497L16.137 18.475C16.4307 17.9746 16.8532 17.562 17.3603 17.2801C17.8675 16.9982 18.4409 16.8573 19.021 16.872L22.5 16.875V22.5H14.062L15.81 19.113V19.113ZM25.875 22.5V16.875L29.122 16.872C29.852 16.862 30.559 17.112 31.119 17.58C31.397 17.82 31.64 18.097 31.839 18.406L33.269 20.686L34.312 22.5H25.875Z" fill="white"/>
</svg>
