<svg width="50" height="50" viewBox="0 0 55 55" fill="none" xmlns="http://www.w3.org/2000/svg">
<g opacity="0.99">
<path opacity="0.99" d="M27.265 54.125C42.1767 54.125 54.265 42.0367 54.265 27.125C54.265 12.2133 42.1767 0.125 27.265 0.125C12.3533 0.125 0.265015 12.2133 0.265015 27.125C0.265015 42.0367 12.3533 54.125 27.265 54.125Z" fill="#EE2737"/>
<path opacity="0.99" d="M25.9451 25.524C26.0581 22.1289 25.8461 18.7307 25.3121 15.376C25.2841 15.1152 25.2036 14.8628 25.0756 14.6338C24.9476 14.4049 24.7746 14.2042 24.567 14.0439C24.3595 13.8835 24.1217 13.7667 23.8679 13.7006C23.614 13.6344 23.3495 13.6203 23.0901 13.659C22.5659 13.7796 22.1087 14.0984 21.8144 14.5486C21.52 14.9988 21.4113 15.5454 21.5111 16.074C21.9009 18.2585 22.0993 20.4729 22.1041 22.692C22.1204 22.8736 22.0987 23.0566 22.0405 23.2294C21.9822 23.4022 21.8887 23.561 21.7658 23.6957C21.643 23.8304 21.4934 23.9381 21.3267 24.012C21.1599 24.0858 20.9797 24.1241 20.7973 24.1245C20.615 24.1249 20.4346 24.0874 20.2675 24.0144C20.1004 23.9413 19.9504 23.8343 19.8269 23.7002C19.7034 23.566 19.6091 23.4077 19.5501 23.2351C19.4911 23.0626 19.4686 22.8797 19.4841 22.698L19.4731 14.709C19.4975 14.2165 19.3512 13.7307 19.059 13.3336C18.7668 12.9364 18.3465 12.6522 17.8691 12.529C17.5799 12.4897 17.2857 12.5146 17.0072 12.6019C16.7288 12.6892 16.473 12.8367 16.258 13.0341C16.0431 13.2314 15.8742 13.4736 15.7634 13.7436C15.6526 14.0135 15.6027 14.3046 15.6171 14.596L15.6271 22.698C15.6368 23.0626 15.5026 23.4165 15.2536 23.6829C15.0045 23.9494 14.6605 24.1072 14.2961 24.122C14.1157 24.1143 13.9387 24.071 13.7752 23.9947C13.6116 23.9184 13.4647 23.8105 13.343 23.6773C13.2213 23.544 13.1271 23.388 13.0658 23.2183C13.0046 23.0485 12.9775 22.8683 12.9861 22.688C12.9931 20.471 13.1911 18.258 13.5781 16.075C13.6775 15.5466 13.5687 15.0002 13.2743 14.5502C12.98 14.1003 12.523 13.7816 11.9991 13.661C11.7393 13.6196 11.4738 13.6319 11.219 13.6969C10.9641 13.7619 10.7253 13.8783 10.5171 14.039C10.3088 14.1998 10.1357 14.4013 10.0083 14.6314C9.88085 14.8615 9.80182 15.1152 9.77605 15.377C9.27819 18.5101 9.05933 21.6812 9.12205 24.853C9.13341 26.3739 9.51481 27.8691 10.2333 29.2096C10.9518 30.5501 11.9858 31.6955 13.2461 32.547C13.8104 32.9067 14.2804 33.3962 14.6168 33.9746C14.9533 34.5531 15.1464 35.2037 15.1801 35.872L15.3881 40.646C15.3904 41.2229 15.6153 41.7767 16.0158 42.1919C16.4163 42.6071 16.9616 42.8518 17.5381 42.875C18.1136 42.8516 18.6581 42.6074 19.0583 42.193C19.4585 41.7787 19.6837 41.2261 19.6871 40.65L19.8951 36.04C19.9324 35.3719 20.1327 34.7231 20.4783 34.1502C20.824 33.5773 21.3045 33.0976 21.8781 32.753C23.093 31.9699 24.0985 30.9022 24.8072 29.6424C25.516 28.3826 25.9065 26.9689 25.9451 25.524V25.524ZM37.2321 12.5C31.9821 12.5 29.3571 20.377 29.3571 25.58C29.3755 26.9049 29.7169 28.2053 30.3515 29.3685C30.9862 30.5316 31.8949 31.5224 32.9991 32.255C33.5108 32.5886 33.9375 33.0372 34.245 33.565C34.5525 34.0929 34.7323 34.6853 34.7701 35.295L35.0201 40.652C35.0138 40.9464 35.0664 41.239 35.1747 41.5128C35.283 41.7866 35.4449 42.036 35.6509 42.2464C35.8569 42.4568 36.1028 42.624 36.3742 42.7381C36.6456 42.8522 36.9371 42.911 37.2316 42.911C37.526 42.911 37.8175 42.8522 38.0889 42.7381C38.3603 42.624 38.6062 42.4568 38.8122 42.2464C39.0182 42.036 39.1801 41.7866 39.2884 41.5128C39.3967 41.239 39.4493 40.9464 39.4431 40.652L39.6931 35.295C39.7309 34.6852 39.9109 34.0927 40.2186 33.5649C40.5263 33.037 40.9531 32.5885 41.4651 32.255C42.569 31.5223 43.4775 30.5315 44.112 29.3683C44.7465 28.2052 45.0877 26.9048 45.1061 25.58C45.1061 20.377 42.4811 12.5 37.2321 12.5V12.5Z" fill="white"/>
</g>
</svg>
