<svg width="50" height="50" viewBox="0 0 55 55" fill="none" xmlns="http://www.w3.org/2000/svg">
<path d="M27.8911 54.125C42.8028 54.125 54.8911 42.0367 54.8911 27.125C54.8911 12.2133 42.8028 0.125 27.8911 0.125C12.9794 0.125 0.891113 12.2133 0.891113 27.125C0.891113 42.0367 12.9794 54.125 27.8911 54.125Z" fill="#EE2737"/>
<path d="M22.8291 38.375C22.2727 38.3748 21.7288 38.5396 21.266 38.8486C20.8033 39.1576 20.4426 39.5969 20.2296 40.1108C20.0165 40.6248 19.9606 41.1905 20.0691 41.7362C20.1775 42.2819 20.4453 42.7833 20.8387 43.1768C21.2321 43.5703 21.7333 43.8383 22.279 43.9469C22.8247 44.0555 23.3903 43.9999 23.9044 43.787C24.4185 43.5741 24.8579 43.2136 25.167 42.751C25.4761 42.2883 25.6411 41.7444 25.6411 41.188C25.6429 40.8181 25.5713 40.4516 25.4305 40.1095C25.2898 39.7674 25.0826 39.4567 24.8211 39.1951C24.5595 38.9335 24.2487 38.7264 23.9067 38.5857C23.5646 38.4449 23.198 38.3733 22.8281 38.375H22.8291Z" fill="white"/>
<path d="M34.0791 44.001C35.6327 44.001 36.8921 42.7416 36.8921 41.188C36.8921 39.6344 35.6327 38.375 34.0791 38.375C32.5255 38.375 31.2661 39.6344 31.2661 41.188C31.2661 42.7416 32.5255 44.001 34.0791 44.001Z" fill="white"/>
<path d="M39.544 19.027C32.099 18.127 24.575 18.0884 17.121 18.912L16.677 16.843C16.4858 15.9478 15.9984 15.1432 15.2934 14.5593C14.5884 13.9754 13.7072 13.6462 12.792 13.625C12.3148 13.6407 11.8624 13.8414 11.5303 14.1845C11.1983 14.5277 11.0127 14.9865 11.0127 15.464C11.0127 15.9415 11.1983 16.4003 11.5303 16.7435C11.8624 17.0866 12.3148 17.2873 12.792 17.303C13.014 17.303 13.236 17.418 13.236 17.648L13.68 19.602C14.124 22.131 15.456 29.142 16.122 31.096C16.5742 32.4716 17.4304 33.679 18.579 34.5608C19.7276 35.4425 21.1153 35.9576 22.561 36.039C26.001 36.154 29.554 36.154 32.995 36.039C34.4274 35.9134 35.7941 35.3816 36.9346 34.5059C38.075 33.6303 38.9418 32.4473 39.433 31.096C40.2745 28.0396 40.905 24.9289 41.32 21.786C41.3914 21.4879 41.4017 21.1784 41.3502 20.8762C41.2988 20.5739 41.1868 20.2853 41.0208 20.0275C40.8549 19.7697 40.6385 19.5482 40.3847 19.3762C40.1309 19.2043 39.845 19.0855 39.544 19.027V19.027ZM25.641 30.645C25.641 30.9434 25.5225 31.2295 25.3115 31.4405C25.1006 31.6515 24.8144 31.77 24.516 31.77C24.2177 31.77 23.9315 31.6515 23.7205 31.4405C23.5096 31.2295 23.391 30.9434 23.391 30.645V23.722C23.391 23.4236 23.5096 23.1375 23.7205 22.9265C23.9315 22.7155 24.2177 22.597 24.516 22.597C24.8144 22.597 25.1006 22.7155 25.3115 22.9265C25.5225 23.1375 25.641 23.4236 25.641 23.722V30.645V30.645ZM32.391 30.645C32.3942 30.947 32.2777 31.238 32.0668 31.4543C31.856 31.6706 31.5681 31.7945 31.266 31.799C30.9707 31.775 30.6941 31.645 30.4873 31.4328C30.2805 31.2207 30.1575 30.9408 30.141 30.645V23.722C30.1378 23.42 30.2544 23.129 30.4653 22.9127C30.6761 22.6964 30.964 22.5725 31.266 22.568C31.876 22.618 32.357 23.11 32.391 23.722V30.645V30.645Z" fill="white"/>
</svg>
