<svg width="50" height="50" viewBox="0 0 55 55" fill="none" xmlns="http://www.w3.org/2000/svg">
<path d="M27.053 54.125C41.9647 54.125 54.053 42.0367 54.053 27.125C54.053 12.2133 41.9647 0.125 27.053 0.125C12.1413 0.125 0.0529785 12.2133 0.0529785 27.125C0.0529785 42.0367 12.1413 54.125 27.053 54.125Z" fill="#00AED6"/>
<path fill-rule="evenodd" clip-rule="evenodd" d="M42.803 26.337C42.578 22.962 39.653 20.262 36.278 20.487H19.178C18.503 20.487 18.053 20.037 18.053 19.363C18.053 18.688 18.503 18.238 19.178 18.238H36.503C36.39 15.988 34.703 13.625 32.565 13.288C27.503 12.388 22.328 12.388 17.378 13.288C14.565 13.738 12.428 16.55 11.978 19.25C11.1905 24.5459 11.1905 29.9292 11.978 35.225C12.541 38.263 15.015 40.737 18.166 41.187C24.466 41.975 30.766 41.975 36.953 41.187C39.766 40.85 41.566 38.263 42.128 35.563C42.691 32.413 42.915 29.375 42.803 26.337V26.337ZM37.178 30.05V31.062C37.178 31.737 36.728 32.187 36.053 32.187C35.378 32.187 34.928 31.737 34.928 31.063V30.05C34.591 29.712 34.365 29.262 34.365 28.812C34.365 27.912 35.153 27.125 36.053 27.125C36.953 27.125 37.741 27.913 37.741 28.813C37.741 29.263 37.515 29.713 37.178 30.05V30.05Z" fill="white"/>
</svg>
