<svg width="50" height="50" viewBox="0 0 54 54" fill="none" xmlns="http://www.w3.org/2000/svg">
<path d="M27 54C41.9117 54 54 41.9117 54 27C54 12.0883 41.9117 0 27 0C12.0883 0 0 12.0883 0 27C0 41.9117 12.0883 54 27 54Z" fill="#00AA13"/>
<path d="M14.625 41.625C17.7316 41.625 20.25 39.1066 20.25 36C20.25 32.8934 17.7316 30.375 14.625 30.375C11.5184 30.375 9 32.8934 9 36C9 39.1066 11.5184 41.625 14.625 41.625Z" fill="white"/>
<path d="M46.1251 36.323C46.1223 37.7795 45.5541 39.178 44.5404 40.2238C43.5266 41.2696 42.1464 41.881 40.6907 41.9291C39.235 41.9772 37.8175 41.4583 36.7369 40.4817C35.6563 39.5051 34.9971 38.1471 34.8981 36.694C34.8793 36.5713 34.8716 36.4471 34.8751 36.323C34.8756 34.8313 35.4684 33.4009 36.5232 32.3461C37.578 31.2913 39.0084 30.6985 40.5001 30.698C40.5791 30.696 40.6581 30.7 40.7361 30.709C42.1849 30.7694 43.5544 31.3871 44.5586 32.4332C45.5628 33.4793 46.124 34.8729 46.1251 36.323V36.323Z" fill="white"/>
<path d="M42.192 27.622C41.9568 27.7602 41.6958 27.8487 41.425 27.882H41.415C41.2759 27.8932 41.1362 27.8932 40.997 27.882C40.929 27.871 40.862 27.871 40.794 27.859C40.5583 27.8296 40.3214 27.8109 40.084 27.803H40.039C39.4881 27.7961 38.9385 27.8603 38.404 27.994C37.0816 28.2866 35.874 28.9608 34.931 29.933C34.9172 29.946 34.9057 29.9612 34.897 29.978C34.7946 30.0673 34.7003 30.1653 34.615 30.271C33.2074 31.7187 32.4258 33.6619 32.439 35.681C32.439 36.475 32.557 37.265 32.789 38.025C31.3959 38.1811 29.9949 38.2563 28.593 38.25C26.4706 38.2283 24.3512 38.0854 22.245 37.822C22.4408 37.1253 22.5394 36.4048 22.538 35.681C22.5417 35.5377 22.5344 35.3943 22.516 35.252C22.527 35.241 22.527 35.241 22.516 35.23C22.5173 34.3746 22.3603 33.5264 22.053 32.728C21.6873 31.7377 21.1106 30.8386 20.3629 30.0932C19.6153 29.3478 18.7145 28.7738 17.723 28.411C17.6246 28.3574 17.5183 28.3196 17.408 28.299C17.3488 28.2647 17.2837 28.2416 17.216 28.231C17.115 28.209 17.024 28.175 16.934 28.152C16.8653 28.1424 16.7974 28.1274 16.731 28.107C16.0541 27.9039 15.3518 27.7978 14.645 27.792C13.2576 27.7878 11.894 28.1526 10.694 28.849C10.154 29.163 9.47704 29.109 8.99404 28.714C8.69572 28.4713 8.5014 28.1238 8.45084 27.7425C8.40028 27.3613 8.49729 26.9751 8.72204 26.663C9.25204 25.926 9.88204 25.049 10.101 24.726L9.98804 24.613C9.7081 24.3877 9.49281 24.0922 9.36404 23.7566C9.23528 23.4211 9.19762 23.0574 9.25491 22.7026C9.3122 22.3478 9.46239 22.0145 9.69022 21.7365C9.91804 21.4586 10.2154 21.2459 10.552 21.12C16.1141 19.4356 22.0146 19.2029 27.692 20.444C28.0401 20.54 28.3482 20.7449 28.5713 21.0287C28.7945 21.3124 28.9209 21.6602 28.932 22.021C28.944 22.699 28.907 23.378 28.819 24.05C28.7156 24.8204 28.3585 25.5343 27.804 26.079C27.1956 26.5698 26.4425 26.8467 25.661 26.867C25.4056 27.4966 25.2838 28.1723 25.3033 28.8514C25.3227 29.5305 25.483 30.1982 25.774 30.812C27.014 33.179 31.525 33.404 32.878 29.46C34.006 26.191 34.458 22.923 31.75 14.132C30.77 14.321 29.759 14.243 28.82 13.907C28.5868 13.8646 28.3773 13.7377 28.2316 13.5507C28.0859 13.3637 28.0142 13.1296 28.03 12.893C28.012 12.698 28.051 12.503 28.142 12.329C28.4 11.903 28.892 11.679 29.382 11.766C29.972 11.912 30.584 11.95 31.187 11.878L30.849 10.977C30.7468 10.7203 30.72 10.4397 30.7717 10.1683C30.8234 9.89682 30.9515 9.64575 31.1409 9.44456C31.3303 9.24337 31.5732 9.10041 31.8411 9.03248C32.1089 8.96454 32.3906 8.97445 32.653 9.06105C33.5314 9.19081 34.3595 9.55132 35.0529 10.1058C35.7464 10.6602 36.2802 11.3888 36.6 12.217C37.614 15.372 35.697 14.696 35.021 14.471C35.923 14.921 40.884 17.401 43.252 25.177C43.3655 25.6444 43.3233 26.136 43.132 26.5773C42.9407 27.0185 42.6107 27.3854 42.192 27.622V27.622Z" fill="white"/>
</svg>
