<svg width="23" height="25" viewBox="0 0 23 25" fill="none" xmlns="http://www.w3.org/2000/svg">
<path d="M2.5 25.0003H20C21.3788 25.0003 22.5 23.879 22.5 22.5003V11.2503C22.5002 11.0861 22.4679 10.9235 22.405 10.7718C22.3422 10.6202 22.25 10.4824 22.1337 10.3665L12.1338 0.366501C12.0178 0.250319 11.88 0.158147 11.7284 0.0952585C11.5767 0.0323701 11.4142 0 11.25 0C11.0858 0 10.9233 0.0323701 10.7716 0.0952585C10.62 0.158147 10.4822 0.250319 10.3663 0.366501L0.366251 10.3665C0.250003 10.4824 0.157805 10.6202 0.0949521 10.7718C0.0320994 10.9235 -0.000168926 11.0861 6.65021e-07 11.2503V22.5003C6.65021e-07 23.879 1.12125 25.0003 2.5 25.0003V25.0003ZM8.75 22.5003V16.2503H13.75V22.5003H8.75ZM2.5 11.7678L11.25 3.01775L20 11.7678L20.0012 22.5003H16.25V16.2503C16.25 14.8715 15.1288 13.7503 13.75 13.7503H8.75C7.37125 13.7503 6.25 14.8715 6.25 16.2503V22.5003H2.5V11.7678Z" fill="white"/>
</svg>
