<svg width="18" height="18" viewBox="0 0 24 26" fill="none" xmlns="http://www.w3.org/2000/svg">
<path d="M9.5 3C9.16848 3 8.85054 3.1317 8.61612 3.36612C8.3817 3.60054 8.25 3.91848 8.25 4.25C8.25 4.58152 8.3817 4.89946 8.61612 5.13388C8.85054 5.3683 9.16848 5.5 9.5 5.5H14.5C14.8315 5.5 15.1495 5.3683 15.3839 5.13388C15.6183 4.89946 15.75 4.58152 15.75 4.25C15.75 3.91848 15.6183 3.60054 15.3839 3.36612C15.1495 3.1317 14.8315 3 14.5 3H9.5ZM5.9625 3C6.22126 2.26866 6.7004 1.63553 7.33394 1.1878C7.96747 0.740074 8.72423 0.499776 9.5 0.5H14.5C16.1325 0.5 17.5225 1.54375 18.0375 3H19.5C20.4946 3 21.4484 3.39509 22.1517 4.09835C22.8549 4.80161 23.25 5.75544 23.25 6.75V21.75C23.25 22.7446 22.8549 23.6984 22.1517 24.4017C21.4484 25.1049 20.4946 25.5 19.5 25.5H4.5C3.50544 25.5 2.55161 25.1049 1.84835 24.4017C1.14509 23.6984 0.75 22.7446 0.75 21.75V6.75C0.75 5.75544 1.14509 4.80161 1.84835 4.09835C2.55161 3.39509 3.50544 3 4.5 3H5.9625ZM5.9625 5.5H4.5C4.16848 5.5 3.85054 5.6317 3.61612 5.86612C3.3817 6.10054 3.25 6.41848 3.25 6.75V21.75C3.25 22.0815 3.3817 22.3995 3.61612 22.6339C3.85054 22.8683 4.16848 23 4.5 23H19.5C19.8315 23 20.1495 22.8683 20.3839 22.6339C20.6183 22.3995 20.75 22.0815 20.75 21.75V6.75C20.75 6.41848 20.6183 6.10054 20.3839 5.86612C20.1495 5.6317 19.8315 5.5 19.5 5.5H18.0375C17.7787 6.23134 17.2996 6.86447 16.6661 7.3122C16.0325 7.75993 15.2758 8.00022 14.5 8H9.5C8.72423 8.00022 7.96747 7.75993 7.33394 7.3122C6.7004 6.86447 6.22126 6.23134 5.9625 5.5V5.5ZM5.75 11.75C5.75 11.4185 5.8817 11.1005 6.11612 10.8661C6.35054 10.6317 6.66848 10.5 7 10.5H17C17.3315 10.5 17.6495 10.6317 17.8839 10.8661C18.1183 11.1005 18.25 11.4185 18.25 11.75C18.25 12.0815 18.1183 12.3995 17.8839 12.6339C17.6495 12.8683 17.3315 13 17 13H7C6.66848 13 6.35054 12.8683 6.11612 12.6339C5.8817 12.3995 5.75 12.0815 5.75 11.75ZM5.75 16.75C5.75 16.4185 5.8817 16.1005 6.11612 15.8661C6.35054 15.6317 6.66848 15.5 7 15.5H12C12.3315 15.5 12.6495 15.6317 12.8839 15.8661C13.1183 16.1005 13.25 16.4185 13.25 16.75C13.25 17.0815 13.1183 17.3995 12.8839 17.6339C12.6495 17.8683 12.3315 18 12 18H7C6.66848 18 6.35054 17.8683 6.11612 17.6339C5.8817 17.3995 5.75 17.0815 5.75 16.75Z" fill="#4C916B"/>
</svg>
