<svg width="29" height="29" viewBox="0 0 29 29" fill="none" xmlns="http://www.w3.org/2000/svg">
<path d="M24.1875 10.025V4.1375H18.3125L14.1375 0L10.025 4.1375H4.1375V10.025L0 14.1375L4.1375 18.3125V24.1875H10.025L14.1375 28.325L18.3125 24.1875H24.1875V18.3125L28.325 14.1375L24.1875 10.025V10.025ZM10.175 7.95C11.4 7.95 12.3875 8.9375 12.3875 10.175C12.3875 10.7618 12.1544 11.3246 11.7395 11.7395C11.3246 12.1544 10.7618 12.3875 10.175 12.3875C8.9375 12.3875 7.95 11.4 7.95 10.175C7.95 8.9375 8.9375 7.95 10.175 7.95ZM18.1625 20.3875C16.9375 20.3875 15.95 19.3875 15.95 18.1625C15.95 17.5757 16.1831 17.013 16.598 16.598C17.013 16.1831 17.5757 15.95 18.1625 15.95C19.3875 15.95 20.3875 16.9375 20.3875 18.1625C20.3875 18.7526 20.1531 19.3185 19.7358 19.7358C19.3185 20.1531 18.7526 20.3875 18.1625 20.3875ZM9.7625 20.425L7.8875 18.55L18.55 7.8875L20.425 9.7625L9.7625 20.425V20.425Z" fill="white"/>
</svg>
