<svg width="52" height="52" viewBox="0 0 52 52" fill="none" xmlns="http://www.w3.org/2000/svg">
<circle cx="26" cy="26" r="26" fill="#008000"/>
<path d="M35.8227 27.7004C35.5477 27.7004 35.2602 27.6129 34.9852 27.5504C34.4283 27.4277 33.881 27.2648 33.3477 27.0629C32.7678 26.8519 32.1304 26.8629 31.5581 27.0937C30.9858 27.3244 30.5191 27.7587 30.2477 28.3129L29.9727 28.8754C28.7552 28.1981 27.6364 27.3569 26.6477 26.3754C25.6662 25.3867 24.825 24.2679 24.1477 23.0504L24.6727 22.7004C25.2269 22.429 25.6612 21.9623 25.892 21.39C26.1227 20.8177 26.1337 20.1803 25.9227 19.6004C25.7242 19.0659 25.5614 18.5189 25.4352 17.9629C25.3727 17.6879 25.3227 17.4004 25.2852 17.1129C25.1334 16.2324 24.6722 15.4351 23.9847 14.8644C23.2972 14.2938 22.4286 13.9874 21.5352 14.0004H17.7852C17.2465 13.9953 16.713 14.1064 16.2211 14.3261C15.7292 14.5457 15.2903 14.8688 14.9345 15.2732C14.5786 15.6777 14.3141 16.1541 14.1589 16.67C14.0038 17.1859 13.9616 17.7292 14.0352 18.2629C14.7011 23.4996 17.0927 28.3652 20.8323 32.0912C24.5718 35.8171 29.4461 38.191 34.6852 38.8379H35.1602C36.082 38.8392 36.972 38.5011 37.6602 37.8879C38.0557 37.5342 38.3716 37.1006 38.587 36.6158C38.8025 36.131 38.9127 35.6059 38.9102 35.0754V31.3254C38.8949 30.4571 38.5787 29.6211 38.0156 28.96C37.4526 28.2989 36.6775 27.8537 35.8227 27.7004V27.7004ZM36.4477 35.2004C36.4475 35.3779 36.4095 35.5533 36.3362 35.7149C36.2629 35.8766 36.156 36.0208 36.0227 36.1379C35.883 36.2585 35.7197 36.3486 35.5432 36.4024C35.3667 36.4562 35.1809 36.4726 34.9977 36.4504C30.3163 35.8502 25.968 33.7085 22.6386 30.3633C19.3092 27.018 17.1882 22.6596 16.6102 17.9754C16.5903 17.7923 16.6077 17.6071 16.6615 17.4309C16.7152 17.2547 16.804 17.0913 16.9227 16.9504C17.0398 16.8171 17.184 16.7102 17.3457 16.6369C17.5073 16.5636 17.6827 16.5256 17.8602 16.5254H21.6102C21.9009 16.5189 22.1847 16.614 22.4129 16.7942C22.641 16.9745 22.7992 17.2286 22.8602 17.5129C22.9102 17.8546 22.9727 18.1921 23.0477 18.5254C23.1921 19.1843 23.3843 19.8319 23.6227 20.4629L21.8727 21.2754C21.7231 21.344 21.5885 21.4416 21.4767 21.5624C21.3648 21.6832 21.278 21.8249 21.221 21.9794C21.1641 22.1339 21.1383 22.2981 21.145 22.4625C21.1517 22.627 21.1909 22.7886 21.2602 22.9379C23.0592 26.7913 26.1568 29.8889 30.0102 31.6879C30.3145 31.8129 30.6559 31.8129 30.9602 31.6879C31.1161 31.6321 31.2594 31.546 31.3817 31.4344C31.504 31.3228 31.6029 31.188 31.6727 31.0379L32.4477 29.2879C33.0939 29.519 33.7534 29.711 34.4227 29.8629C34.756 29.9379 35.0935 30.0004 35.4352 30.0504C35.7195 30.1114 35.9736 30.2696 36.1539 30.4977C36.3341 30.7259 36.4292 31.0097 36.4227 31.3004L36.4477 35.2004Z" fill="white"/>
</svg>
