<svg width="170" height="170" viewBox="0 0 170 170" fill="none" xmlns="http://www.w3.org/2000/svg">
<path fill-rule="evenodd" clip-rule="evenodd" d="M15 0C6.71582 0 0 6.71582 0 15V155C0 163.284 6.71582 170 15 170H155C163.284 170 170 163.284 170 155V15C170 6.71582 163.284 0 155 0H15ZM95.9089 74.0911H136.818C141.334 74.0911 145 77.7565 145 82.2728V87.7272C145 92.2435 141.334 95.9089 136.818 95.9089H95.9089V136.818C95.9089 141.335 92.2434 145 87.7271 145H82.2729C77.7566 145 74.0911 141.335 74.0911 136.818V95.9089H33.1819C28.6655 95.9089 25 92.2435 25 87.7272V82.2728C25 77.7565 28.6655 74.0911 33.1819 74.0911H74.0911V33.1819C74.0911 28.6655 77.7566 25 82.2729 25H87.7271C92.2434 25 95.9089 28.6655 95.9089 33.1819V74.0911Z" fill="white"/>
</svg>
